<?xml version="1.0" encoding="UTF-8"?>
<svg width="126px" height="60px" viewBox="0 0 126 60" version="1.1" xmlns="http://www.w3.org/2000/svg" xmlns:xlink="http://www.w3.org/1999/xlink">
    <!-- Generator: Sketch 52.5 (67469) - http://www.bohemiancoding.com/sketch -->
    <title>google-play-badge</title>
    <desc>Created with Sketch.</desc>
    <defs>
        <filter x="-28.2%" y="-120.0%" width="156.5%" height="340.0%" filterUnits="objectBoundingBox" id="filter-1">
            <feGaussianBlur stdDeviation="8" in="SourceGraphic"></feGaussianBlur>
        </filter>
        <linearGradient x1="90.7692308%" y1="4.84%" x2="-38.3307692%" y2="71.968%" id="linearGradient-2">
            <stop stop-color="#00A0FF" offset="0%"></stop>
            <stop stop-color="#00A1FF" offset="0.7%"></stop>
            <stop stop-color="#00BEFF" offset="26%"></stop>
            <stop stop-color="#00D2FF" offset="51.2%"></stop>
            <stop stop-color="#00DFFF" offset="76%"></stop>
            <stop stop-color="#00E3FF" offset="100%"></stop>
        </linearGradient>
        <linearGradient x1="107.724138%" y1="49.4235294%" x2="-130.669951%" y2="49.4235294%" id="linearGradient-3">
            <stop stop-color="#FFE000" offset="0%"></stop>
            <stop stop-color="#FFBD00" offset="40.9%"></stop>
            <stop stop-color="#FFA500" offset="77.5%"></stop>
            <stop stop-color="#FF9C00" offset="100%"></stop>
        </linearGradient>
        <linearGradient x1="86.3892216%" y1="17.81427%" x2="-49.8862275%" y2="194.389687%" id="linearGradient-4">
            <stop stop-color="#FF3A44" offset="0%"></stop>
            <stop stop-color="#C31162" offset="100%"></stop>
        </linearGradient>
        <linearGradient x1="-18.5808383%" y1="-54.5282125%" x2="42.2754491%" y2="24.6924404%" id="linearGradient-5">
            <stop stop-color="#32A071" offset="0%"></stop>
            <stop stop-color="#2DA771" offset="6.9%"></stop>
            <stop stop-color="#15CF74" offset="47.6%"></stop>
            <stop stop-color="#06E775" offset="80.1%"></stop>
            <stop stop-color="#00F076" offset="100%"></stop>
        </linearGradient>
    </defs>
    <g id="Landing-Page" stroke="none" stroke-width="1" fill="none" fill-rule="evenodd">
        <g transform="translate(-168.000000, -536.000000)" fill-rule="nonzero" id="Group-4">
            <g transform="translate(172.139756, 203.000000)">
                <g id="google-play-badge" transform="translate(0.755607, 338.352906)">
                    <rect id="Shadow" fill="#000000" opacity="0.6" filter="url(#filter-1)" x="15.5645161" y="14.6470944" width="85" height="20"></rect>
                    <path d="M111.827957,34.4086022 L4.30107527,34.4086022 C1.89247312,34.4086022 0,32.516129 0,30.1075269 L0,4.30107527 C0,1.89247312 1.89247312,0 4.30107527,0 L111.827957,0 C114.236559,0 116.129032,1.89247312 116.129032,4.30107527 L116.129032,30.1075269 C116.129032,32.516129 114.236559,34.4086022 111.827957,34.4086022 Z" id="Shape" fill="#000000"></path>
                    <path d="M40.7741935,8.77419355 C40.7741935,9.46236559 40.6021505,10.0645161 40.172043,10.4946237 C39.655914,11.0107527 39.0537634,11.2688172 38.2795699,11.2688172 C37.5053763,11.2688172 36.9032258,11.0107527 36.3870968,10.4946237 C35.8709677,9.97849462 35.6129032,9.37634409 35.6129032,8.60215054 C35.6129032,7.82795699 35.8709677,7.22580645 36.3870968,6.70967742 C36.9032258,6.19354839 37.5053763,5.93548387 38.2795699,5.93548387 C38.6236559,5.93548387 38.9677419,6.02150538 39.311828,6.19354839 C39.655914,6.3655914 39.9139785,6.53763441 40.0860215,6.79569892 L39.655914,7.22580645 C39.311828,6.79569892 38.8817204,6.62365591 38.2795699,6.62365591 C37.7634409,6.62365591 37.2473118,6.79569892 36.9032258,7.22580645 C36.4731183,7.56989247 36.3010753,8.08602151 36.3010753,8.68817204 C36.3010753,9.29032258 36.4731183,9.80645161 36.9032258,10.1505376 C37.3333333,10.4946237 37.7634409,10.7526882 38.2795699,10.7526882 C38.8817204,10.7526882 39.311828,10.5806452 39.7419355,10.1505376 C40,9.89247312 40.172043,9.5483871 40.172043,9.11827957 L38.2795699,9.11827957 L38.2795699,8.43010753 L40.7741935,8.43010753 L40.7741935,8.77419355 Z M44.7311828,6.62365591 L42.4086022,6.62365591 L42.4086022,8.25806452 L44.5591398,8.25806452 L44.5591398,8.86021505 L42.4086022,8.86021505 L42.4086022,10.4946237 L44.7311828,10.4946237 L44.7311828,11.1827957 L41.7204301,11.1827957 L41.7204301,6.02150538 L44.7311828,6.02150538 L44.7311828,6.62365591 Z M47.5698925,11.1827957 L46.8817204,11.1827957 L46.8817204,6.62365591 L45.4193548,6.62365591 L45.4193548,6.02150538 L49.0322581,6.02150538 L49.0322581,6.62365591 L47.5698925,6.62365591 L47.5698925,11.1827957 Z M51.5268817,11.1827957 L51.5268817,6.02150538 L52.2150538,6.02150538 L52.2150538,11.1827957 L51.5268817,11.1827957 Z M55.1397849,11.1827957 L54.4516129,11.1827957 L54.4516129,6.62365591 L52.9892473,6.62365591 L52.9892473,6.02150538 L56.516129,6.02150538 L56.516129,6.62365591 L55.0537634,6.62365591 L55.0537634,11.1827957 L55.1397849,11.1827957 Z M63.311828,10.4946237 C62.7956989,11.0107527 62.1935484,11.2688172 61.4193548,11.2688172 C60.6451613,11.2688172 60.0430108,11.0107527 59.5268817,10.4946237 C59.0107527,9.97849462 58.7526882,9.37634409 58.7526882,8.60215054 C58.7526882,7.82795699 59.0107527,7.22580645 59.5268817,6.70967742 C60.0430108,6.19354839 60.6451613,5.93548387 61.4193548,5.93548387 C62.1935484,5.93548387 62.7956989,6.19354839 63.311828,6.70967742 C63.827957,7.22580645 64.0860215,7.82795699 64.0860215,8.60215054 C64.0860215,9.37634409 63.827957,9.97849462 63.311828,10.4946237 Z M60.0430108,10.0645161 C60.3870968,10.4086022 60.9032258,10.6666667 61.4193548,10.6666667 C61.9354839,10.6666667 62.4516129,10.4946237 62.7956989,10.0645161 C63.1397849,9.72043011 63.3978495,9.20430108 63.3978495,8.60215054 C63.3978495,8 63.2258065,7.48387097 62.7956989,7.13978495 C62.4516129,6.79569892 61.9354839,6.53763441 61.4193548,6.53763441 C60.9032258,6.53763441 60.3870968,6.70967742 60.0430108,7.13978495 C59.6989247,7.48387097 59.4408602,8 59.4408602,8.60215054 C59.4408602,9.20430108 59.6129032,9.72043011 60.0430108,10.0645161 Z M65.0322581,11.1827957 L65.0322581,6.02150538 L65.8064516,6.02150538 L68.3010753,10.0645161 L68.3010753,6.02150538 L68.9892473,6.02150538 L68.9892473,11.1827957 L68.3010753,11.1827957 L65.6344086,6.96774194 L65.6344086,11.1827957 L65.0322581,11.1827957 Z" id="Shape" stroke="#FFFFFF" stroke-width="0.5" fill="#FFFFFF"></path>
                    <path d="M58.5806452,18.7526882 C56.516129,18.7526882 54.8817204,20.3010753 54.8817204,22.4516129 C54.8817204,24.516129 56.516129,26.1505376 58.5806452,26.1505376 C60.6451613,26.1505376 62.2795699,24.6021505 62.2795699,22.4516129 C62.2795699,20.2150538 60.6451613,18.7526882 58.5806452,18.7526882 Z M58.5806452,24.6021505 C57.4623656,24.6021505 56.516129,23.655914 56.516129,22.3655914 C56.516129,21.0752688 57.4623656,20.1290323 58.5806452,20.1290323 C59.6989247,20.1290323 60.6451613,20.9892473 60.6451613,22.3655914 C60.6451613,23.655914 59.6989247,24.6021505 58.5806452,24.6021505 Z M50.5806452,18.7526882 C48.516129,18.7526882 46.8817204,20.3010753 46.8817204,22.4516129 C46.8817204,24.516129 48.516129,26.1505376 50.5806452,26.1505376 C52.6451613,26.1505376 54.2795699,24.6021505 54.2795699,22.4516129 C54.2795699,20.2150538 52.6451613,18.7526882 50.5806452,18.7526882 Z M50.5806452,24.6021505 C49.4623656,24.6021505 48.516129,23.655914 48.516129,22.3655914 C48.516129,21.0752688 49.4623656,20.1290323 50.5806452,20.1290323 C51.6989247,20.1290323 52.6451613,20.9892473 52.6451613,22.3655914 C52.6451613,23.655914 51.6989247,24.6021505 50.5806452,24.6021505 Z M41.0322581,19.8709677 L41.0322581,21.4193548 L44.7311828,21.4193548 C44.6451613,22.2795699 44.3010753,22.9677419 43.8709677,23.3978495 C43.3548387,23.9139785 42.4946237,24.516129 41.0322581,24.516129 C38.7096774,24.516129 36.9892473,22.7096774 36.9892473,20.3870968 C36.9892473,18.0645161 38.7956989,16.2580645 41.0322581,16.2580645 C42.2365591,16.2580645 43.1827957,16.7741935 43.8709677,17.3763441 L44.9892473,16.2580645 C44.0430108,15.3978495 42.8387097,14.7096774 41.1182796,14.7096774 C38.0215054,14.7096774 35.3548387,17.2903226 35.3548387,20.3870968 C35.3548387,23.483871 38.0215054,26.0645161 41.1182796,26.0645161 C42.8387097,26.0645161 44.0430108,25.5483871 45.0752688,24.4301075 C46.1075269,23.3978495 46.4516129,21.9354839 46.4516129,20.8172043 C46.4516129,20.4731183 46.4516129,20.1290323 46.3655914,19.8709677 L41.0322581,19.8709677 Z M80.0860215,21.0752688 C79.7419355,20.2150538 78.8817204,18.7526882 76.9892473,18.7526882 C75.0967742,18.7526882 73.5483871,20.2150538 73.5483871,22.4516129 C73.5483871,24.516129 75.0967742,26.1505376 77.1612903,26.1505376 C78.7956989,26.1505376 79.827957,25.1182796 80.172043,24.516129 L78.9677419,23.655914 C78.5376344,24.2580645 78.0215054,24.688172 77.1612903,24.688172 C76.3010753,24.688172 75.7849462,24.344086 75.3548387,23.5698925 L80.2580645,21.5053763 L80.0860215,21.0752688 Z M75.0967742,22.2795699 C75.0967742,20.9032258 76.2150538,20.1290323 76.9892473,20.1290323 C77.5913978,20.1290323 78.1935484,20.4731183 78.3655914,20.9032258 L75.0967742,22.2795699 Z M71.0537634,25.8064516 L72.688172,25.8064516 L72.688172,15.0537634 L71.0537634,15.0537634 L71.0537634,25.8064516 Z M68.4731183,19.5268817 C68.0430108,19.0967742 67.3548387,18.6666667 66.4946237,18.6666667 C64.688172,18.6666667 62.9677419,20.3010753 62.9677419,22.3655914 C62.9677419,24.4301075 64.6021505,25.9784946 66.4946237,25.9784946 C67.3548387,25.9784946 68.0430108,25.5483871 68.3870968,25.1182796 L68.4731183,25.1182796 L68.4731183,25.6344086 C68.4731183,27.0107527 67.6989247,27.7849462 66.4946237,27.7849462 C65.5483871,27.7849462 64.8602151,27.0967742 64.688172,26.4946237 L63.311828,27.0967742 C63.7419355,28.0430108 64.7741935,29.2473118 66.5806452,29.2473118 C68.4731183,29.2473118 70.0215054,28.1290323 70.0215054,25.4623656 L70.0215054,18.9247312 L68.4731183,18.9247312 L68.4731183,19.5268817 Z M66.5806452,24.6021505 C65.4623656,24.6021505 64.516129,23.655914 64.516129,22.3655914 C64.516129,21.0752688 65.4623656,20.1290323 66.5806452,20.1290323 C67.6989247,20.1290323 68.5591398,21.0752688 68.5591398,22.3655914 C68.5591398,23.655914 67.6989247,24.6021505 66.5806452,24.6021505 Z M87.5698925,15.0537634 L83.6989247,15.0537634 L83.6989247,25.8064516 L85.3333333,25.8064516 L85.3333333,21.7634409 L87.5698925,21.7634409 C89.3763441,21.7634409 91.0967742,20.4731183 91.0967742,18.4086022 C91.0967742,16.344086 89.3763441,15.0537634 87.5698925,15.0537634 Z M87.655914,20.2150538 L85.3333333,20.2150538 L85.3333333,16.516129 L87.655914,16.516129 C88.8602151,16.516129 89.5483871,17.5483871 89.5483871,18.3225806 C89.4623656,19.2688172 88.7741935,20.2150538 87.655914,20.2150538 Z M97.5483871,18.6666667 C96.344086,18.6666667 95.1397849,19.1827957 94.7096774,20.3010753 L96.172043,20.9032258 C96.516129,20.3010753 97.0322581,20.1290323 97.6344086,20.1290323 C98.4946237,20.1290323 99.2688172,20.6451613 99.3548387,21.5053763 L99.3548387,21.5913978 C99.0967742,21.4193548 98.4086022,21.1612903 97.7204301,21.1612903 C96.172043,21.1612903 94.6236559,22.0215054 94.6236559,23.5698925 C94.6236559,25.0322581 95.9139785,25.9784946 97.2903226,25.9784946 C98.4086022,25.9784946 98.9247312,25.4623656 99.3548387,24.9462366 L99.4408602,24.9462366 L99.4408602,25.8064516 L100.989247,25.8064516 L100.989247,21.6774194 C100.817204,19.7849462 99.3548387,18.6666667 97.5483871,18.6666667 Z M97.3763441,24.6021505 C96.8602151,24.6021505 96.0860215,24.344086 96.0860215,23.655914 C96.0860215,22.7956989 97.0322581,22.5376344 97.8064516,22.5376344 C98.4946237,22.5376344 98.8387097,22.7096774 99.2688172,22.8817204 C99.0967742,23.9139785 98.2365591,24.6021505 97.3763441,24.6021505 Z M106.408602,18.9247312 L104.602151,23.5698925 L104.516129,23.5698925 L102.623656,18.9247312 L100.903226,18.9247312 L103.741935,25.4623656 L102.107527,29.0752688 L103.741935,29.0752688 L108.129032,18.9247312 L106.408602,18.9247312 Z M91.9569892,25.8064516 L93.5913978,25.8064516 L93.5913978,15.0537634 L91.9569892,15.0537634 L91.9569892,25.8064516 Z" id="Shape" fill="#FFFFFF"></path>
                    <g id="Group" transform="translate(8.602151, 6.021505)">
                        <path d="M0.344086022,0.430107527 C0.0860215054,0.688172043 0,1.11827957 0,1.6344086 L0,20.6451613 C0,21.1612903 0.172043011,21.5913978 0.430107527,21.8494624 L0.516129032,21.9354839 L11.1827957,11.2688172 L11.1827957,11.0967742 L0.344086022,0.430107527 Z" id="Shape" fill="url(#linearGradient-2)"></path>
                        <path d="M14.6236559,14.8817204 L11.0967742,11.3548387 L11.0967742,11.0967742 L14.6236559,7.56989247 L14.7096774,7.65591398 L18.9247312,10.0645161 C20.1290323,10.7526882 20.1290323,11.8709677 18.9247312,12.5591398 L14.6236559,14.8817204 Z" id="Shape" fill="url(#linearGradient-3)"></path>
                        <path d="M14.7096774,14.7956989 L11.0967742,11.1827957 L0.344086022,21.9354839 C0.774193548,22.3655914 1.37634409,22.3655914 2.15053763,22.0215054 L14.7096774,14.7956989" id="Shape" fill="url(#linearGradient-4)"></path>
                        <path d="M14.7096774,7.56989247 L2.15053763,0.430107527 C1.37634409,1.11022302e-16 0.774193548,0.0860215054 0.344086022,0.516129032 L11.0967742,11.1827957 L14.7096774,7.56989247 Z" id="Shape" fill="url(#linearGradient-5)"></path>
                        <path d="M14.6236559,14.7096774 L2.15053763,21.7634409 C1.46236559,22.1935484 0.860215054,22.1075269 0.430107527,21.7634409 L0.344086022,21.8494624 L0.430107527,21.9354839 C0.860215054,22.2795699 1.46236559,22.3655914 2.15053763,21.9354839 L14.6236559,14.7096774 Z" id="Shape" fill="#000000" opacity="0.2"></path>
                        <path d="M0.344086022,21.7634409 C0.0860215054,21.5053763 0,21.0752688 0,20.5591398 L0,20.6451613 C0,21.1612903 0.172043011,21.5913978 0.430107527,21.8494624 L0.430107527,21.7634409 L0.344086022,21.7634409 Z M18.9247312,12.3010753 L14.6236559,14.7096774 L14.7096774,14.7956989 L18.9247312,12.3870968 C19.5268817,12.0430108 19.7849462,11.6129032 19.7849462,11.1827957 C19.7849462,11.6129032 19.4408602,11.9569892 18.9247312,12.3010753 Z" id="Shape" fill="#000000" opacity="0.12"></path>
                        <path d="M2.15053763,0.516129032 L18.9247312,10.0645161 C19.4408602,10.4086022 19.7849462,10.7526882 19.7849462,11.1827957 C19.7849462,10.7526882 19.5268817,10.3225806 18.9247312,9.97849462 L2.15053763,0.430107527 C0.946236559,-0.258064516 0,0.258064516 0,1.6344086 L0,1.72043011 C0,0.430107527 0.946236559,-0.172043011 2.15053763,0.516129032 Z" id="Shape" fill="#FFFFFF" opacity="0.25"></path>
                    </g>
                </g>
            </g>
        </g>
    </g>
</svg>
