<?xml version="1.0" encoding="UTF-8"?>
<svg width="126px" height="61px" viewBox="0 0 126 61" version="1.1" xmlns="http://www.w3.org/2000/svg" xmlns:xlink="http://www.w3.org/1999/xlink">
    <!-- Generator: Sketch 52.5 (67469) - http://www.bohemiancoding.com/sketch -->
    <title>download-on-the-app-store-apple</title>
    <desc>Created with Sketch.</desc>
    <defs>
        <filter x="-28.2%" y="-120.0%" width="156.5%" height="340.0%" filterUnits="objectBoundingBox" id="filter-1">
            <feGaussianBlur stdDeviation="8" in="SourceGraphic"></feGaussianBlur>
        </filter>
    </defs>
    <g id="Landing-Page" stroke="none" stroke-width="1" fill="none" fill-rule="evenodd">
        <g transform="translate(-300.000000, -535.000000)" fill-rule="nonzero" id="Group-4">
            <g transform="translate(172.139756, 203.000000)">
                <g id="download-on-the-app-store-apple" transform="translate(132.835436, 338.052463)">
                    <rect id="Shadow-Copy" fill="#000000" opacity="0.6" filter="url(#filter-1)" x="15.5645161" y="14.9475371" width="85" height="20"></rect>
                    <path d="M115.408257,31.5040413 C115.408258,32.4128117 115.058415,33.284309 114.435788,33.9265713 C113.813162,34.5688335 112.968825,34.9291758 112.088757,34.9282267 L3.45694416,34.9282267 C1.62349396,34.930203 0.135504354,33.3972866 0.133114934,31.5040413 L0.133114934,4.19728014 C0.13550309,2.30331205 1.6227931,0.769116119 3.45694416,0.768624504 L112.087891,0.768624504 C112.968427,0.768624473 113.812887,1.12988533 114.435439,1.7729087 C115.05799,2.41593207 115.407621,3.28802635 115.407391,4.19728014 L115.408257,31.5040413 Z" id="Shape" fill="#000000"></path>
                    <path d="M25.1619444,17.0859182 C25.1368927,14.3024611 27.4416494,12.9483002 27.5470393,12.8852557 C26.2417592,10.9826942 24.2186182,10.7227436 23.5076681,10.7020167 C21.8084716,10.5232467 20.1602423,11.718501 19.2946627,11.718501 C18.4118061,11.718501 17.0788828,10.7192891 15.6422972,10.7486523 C13.7936542,10.7771519 12.0642229,11.8471808 11.1157135,13.5087916 C9.15822528,16.8967847 10.6181349,21.8755715 12.4935572,24.6141202 C13.4317003,25.9561904 14.5279283,27.4528491 15.9627862,27.4001681 C17.3665454,27.343169 17.8909035,26.5063183 19.5849169,26.5063183 C21.263381,26.5063183 21.7557766,27.4001681 23.2191416,27.3664868 C24.7256992,27.343169 25.6742085,26.0192349 26.5795252,24.6659376 C27.6636593,23.1295522 28.0990406,21.6147574 28.1163177,21.5370313 C28.0817636,21.5249406 25.1913153,20.4212303 25.1619444,17.0859182 Z M22.3976185,8.90049903 C23.152625,7.95655905 23.6692084,6.67235159 23.525809,5.36914443 C22.4330364,5.41750732 21.0664228,6.12481458 20.2794538,7.04802761 C19.5831892,7.86156051 18.9612159,9.19499448 19.1218923,10.4489751 C20.3494258,10.5405192 21.6097856,9.82975741 22.3976185,8.90049903 Z" id="Shape" fill="#FFFFFF"></path>
                    <g id="Group" transform="translate(35.417593, 15.529185)" fill="#FFFFFF">
                        <path d="M10.0768317,11.6783956 L8.11502414,11.6783956 L7.04039245,8.30249316 L3.30509712,8.30249316 L2.2814327,11.6783956 L0.371456289,11.6783956 L4.0730614,0.185300229 L6.35881336,0.185300229 L10.0768317,11.6783956 Z M6.71644802,6.88615138 L5.7446147,3.88506132 C5.64181633,3.57847514 5.44831352,2.85648628 5.16497012,1.71995837 L5.13041605,1.71995837 C5.01638761,2.20876901 4.83411487,2.93075787 4.58446169,3.88506132 L3.62904156,6.88615138 L6.71644802,6.88615138 Z M19.5774741,7.43282476 C19.5774741,8.84225756 19.1947878,9.95633128 18.4285512,10.7741823 C17.7426528,11.5022165 16.8900311,11.8658018 15.8732775,11.8658018 C14.7753218,11.8658018 13.9857612,11.4745806 13.5063234,10.6904109 L13.5063234,15.0387529 L11.6645913,15.0387529 L11.6645913,6.11493601 C11.6645913,5.22972239 11.6412673,4.32205458 11.596347,3.39106895 L13.2160692,3.39106895 L13.3188676,4.70463959 L13.3534217,4.70463959 C13.9676203,3.71492758 14.8997164,3.22007158 16.1505739,3.22007158 C17.1284542,3.22007158 17.9447942,3.60611108 18.5978662,4.3790537 C19.2500743,5.15372357 19.5774741,6.1710715 19.5774741,7.43282476 Z M17.7011879,7.50018736 C17.7011879,6.69356344 17.5197791,6.0285737 17.1552336,5.50435452 C16.7569979,4.95940838 16.2222736,4.6865035 15.5519246,4.6865035 C15.0975385,4.6865035 14.6846173,4.83850116 14.3157526,5.13817835 C13.946024,5.44044641 13.7041455,5.83512214 13.5909809,6.32393278 C13.540462,6.50673728 13.5117553,6.6948755 13.5054596,6.88442413 L13.5054596,8.26708462 C13.5054596,8.86902987 13.6903239,9.37770384 14.0600525,9.79397015 C14.429781,10.2085092 14.9100827,10.4166424 15.5009573,10.4166424 C16.1946303,10.4166424 16.7345377,10.1480556 17.1206795,9.61520018 C17.5076851,9.08061752 17.7011879,8.37590112 17.7011879,7.50018736 Z M29.1118068,7.43282476 C29.1118068,8.84225756 28.7291205,9.95633128 27.9628839,10.7741823 C27.2761217,11.5022165 26.4243638,11.8658018 25.4067463,11.8658018 C24.3087906,11.8658018 23.5192301,11.4745806 23.0397923,10.6904109 L23.0397923,15.0387529 L21.1980602,15.0387529 L21.1980602,6.11493601 C21.1980602,5.22972239 21.1747362,4.32205458 21.1298159,3.39106895 L22.7495381,3.39106895 L22.8523364,4.70463959 L22.8868905,4.70463959 C23.5002253,3.71492758 24.4323214,3.22007158 25.6840428,3.22007158 C26.6610592,3.22007158 27.4773992,3.60611108 28.1321989,4.3790537 C28.7835431,5.15372357 29.1118068,6.1710715 29.1118068,7.43282476 Z M27.2346568,7.50018736 C27.2346568,6.69356344 27.0523841,6.0285737 26.6878386,5.50435452 C26.2896029,4.95940838 25.7566063,4.6865035 25.0862573,4.6865035 C24.6318712,4.6865035 24.21895,4.83850116 23.8483576,5.13817835 C23.478629,5.44044641 23.2376144,5.83512214 23.1244498,6.32393278 C23.0682994,6.55192926 23.0380646,6.73760822 23.0380646,6.88442413 L23.0380646,8.26708462 C23.0380646,8.86902987 23.2237927,9.37770384 23.5917936,9.79397015 C23.9615222,10.2076456 24.4418238,10.4166424 25.0344262,10.4166424 C25.728963,10.4166424 26.2688704,10.1480556 26.6541484,9.61520018 C27.041154,9.08061752 27.2346568,8.37590112 27.2346568,7.50018736 Z M39.7717385,8.45449082 C39.7717385,9.43297572 39.4296532,10.2283725 38.7498018,10.8424085 C38.0017061,11.51258 36.9573092,11.8485294 35.6183389,11.8485294 C34.381303,11.8485294 33.3896011,11.6101694 32.6415054,11.1325859 L33.0673844,9.59792772 C33.8750859,10.0763749 34.7622617,10.3147348 35.728048,10.3147348 C36.4225849,10.3147348 36.9624923,10.1575554 37.3477702,9.84578753 C37.733912,9.53315599 37.9291425,9.11516244 37.9291425,8.59353412 C37.9291425,8.12631406 37.7676022,7.73509282 37.4505686,7.41641592 C37.1318073,7.09860265 36.6048577,6.80237994 35.8645366,6.53033869 C33.8517619,5.77985027 32.8445106,4.68218539 32.8445106,3.23820767 C32.8445106,2.29513131 33.2004176,1.52305231 33.9105038,0.919379811 C34.62059,0.316570931 35.5621885,0.0151664908 36.7335716,0.0151664908 C37.7796961,0.0151664908 38.6513226,0.197390952 39.343268,0.560976251 L38.8811072,2.06195309 C38.229763,1.70959489 37.494625,1.53341579 36.6722381,1.53341579 C36.0226215,1.53341579 35.5129489,1.69318605 35.1484035,2.01099933 C34.8417361,2.29513131 34.6862427,2.64144415 34.6862427,3.05252871 C34.6862427,3.50593081 34.8633324,3.88247045 35.2157839,4.17782953 C35.5215874,4.44987079 36.0796357,4.74609349 36.8864733,5.06390677 C37.8764476,5.46290061 38.6038108,5.92752981 39.0694269,6.46124884 C39.5384985,6.99496788 39.7717385,7.66082124 39.7717385,8.45449082 Z M45.8765794,4.77286581 L43.8465276,4.77286581 L43.8465276,8.79648554 C43.8465276,9.81987884 44.2041622,10.3302801 44.9211593,10.3302801 C45.2502868,10.3302801 45.523264,10.3026441 45.739227,10.2447814 L45.7901942,11.6429871 C45.4273764,11.7785759 44.9496664,11.8468021 44.3579279,11.8468021 C43.6305646,11.8468021 43.0621501,11.624851 42.6518205,11.1809487 C42.2432186,10.7370465 42.0376218,9.99346707 42.0376218,8.94675595 L42.0376218,4.76941131 L40.8282293,4.76941131 L40.8282293,3.38761445 L42.0376218,3.38761445 L42.0376218,1.87022878 L43.8465276,1.32441902 L43.8465276,3.38761445 L45.8765794,3.38761445 L45.8765794,4.77286581 Z M55.0178595,7.46650606 C55.0178595,8.74035004 54.653314,9.78619754 53.9259508,10.6040486 C53.1648973,11.446081 52.152463,11.8658018 50.8903754,11.8658018 C49.6723444,11.8658018 48.7039664,11.4624899 47.9817863,10.6567296 C47.2596062,9.84924202 46.8985161,8.83189408 46.8985161,7.60468575 C46.8985161,6.32047829 47.2717001,5.26858543 48.0154765,4.45073441 C48.7609807,3.63201977 49.7647765,3.22266245 51.026864,3.22266245 C52.2431674,3.22266245 53.2201838,3.62683803 53.959641,4.43346195 C54.6662718,5.21590442 55.0178595,6.22634338 55.0178595,7.46650606 Z M53.108747,7.50882359 C53.108747,6.74969894 52.9446151,6.09852717 52.6154876,5.55358103 C52.2293458,4.89550028 51.6764806,4.5664599 50.9603474,4.5664599 C50.222618,4.5664599 49.656795,4.89550028 49.2715171,5.55358103 C48.9415257,6.09852717 48.7773939,6.76092604 48.7773939,7.54336851 C48.7773939,8.30335678 48.9415257,8.9562558 49.2715171,9.49947469 C49.6697528,10.1575554 50.2252095,10.4865958 50.9447981,10.4865958 C51.6488374,10.4865958 52.2008387,10.1506465 52.5999382,9.48306585 C52.9385681,8.92516537 53.108747,8.26967548 53.108747,7.50882359 Z M61.0069443,5.01036214 C60.8153907,4.97578877 60.6210849,4.95873369 60.4264358,4.95940838 C59.778547,4.95940838 59.2775129,5.20295008 58.9250614,5.69348796 C58.6192578,6.12529948 58.4654922,6.67110924 58.4654922,7.33005362 L58.4654922,11.6783956 L56.6237601,11.6783956 L56.6237601,6.00093776 C56.6254025,5.13097859 56.6075451,4.26109184 56.5702013,3.39193257 L58.1743741,3.39193257 L58.2417546,4.97754447 L58.2927218,4.97754447 C58.4879523,4.43259833 58.7937559,3.9930142 59.2135879,3.66397382 C59.5978753,3.37645447 60.0647965,3.22075431 60.5447836,3.22007158 C60.7149624,3.22007158 60.868728,3.23216231 61.0052166,3.25375288 L61.0069443,5.01036214 Z M69.2437715,7.14264742 C69.2484417,7.42254734 69.2258754,7.70223803 69.1763911,7.9777709 L63.6511947,7.9777709 C63.6719272,8.79648554 63.9397213,9.42347586 64.4528493,9.85528738 C64.9184654,10.2404633 65.5205701,10.4339148 66.2600273,10.4339148 C67.078095,10.4339148 67.824463,10.3043714 68.4956758,10.0426936 L68.7842024,11.3199921 C67.9998249,11.6619868 67.0737757,11.8321205 66.005191,11.8321205 C64.7197795,11.8321205 63.7108005,11.4538536 62.9765265,10.6990471 C62.2439801,9.94337693 61.8768431,8.92775624 61.8768431,7.65563951 C61.8768431,6.40684059 62.2180646,5.36617483 62.9013714,4.53623309 C63.6166407,3.65015586 64.5832909,3.20711724 65.7995943,3.20711724 C66.9943013,3.20711724 67.8987542,3.65015586 68.5129529,4.53623309 C68.9993015,5.23835862 69.2437715,6.10889064 69.2437715,7.14264742 Z M67.4875607,6.66506388 C67.5005185,6.1183905 67.3795793,5.64771594 67.1299261,5.24958572 C66.8111648,4.73659364 66.3204969,4.48096122 65.6631057,4.48096122 C65.0610009,4.48096122 64.5703331,4.73054828 64.1971491,5.23144964 C63.8904817,5.62957986 63.708209,6.10802702 63.6520586,6.66333663 L67.4875607,6.66506388 Z" id="Shape"></path>
                    </g>
                    <g id="Group" transform="translate(36.281445, 5.181738)" fill="#FFFFFF">
                        <path d="M1.90997641,6.46940018 C1.39771227,6.46940018 0.954556278,6.44435511 0.585691544,6.40203758 L0.585691544,0.845486954 C1.10159128,0.765813521 1.62292731,0.726543204 2.14494411,0.728034221 C4.25706184,0.728034221 5.22975901,1.76697274 5.22975901,3.46053751 C5.22975901,5.41405282 4.08083607,6.46940018 1.90997641,6.46940018 Z M2.21923536,1.44052323 C1.93416426,1.44052323 1.69142189,1.45779569 1.49014442,1.49924959 L1.49014442,5.72322987 C1.59898975,5.74050233 1.80804189,5.74827494 2.10175151,5.74827494 C3.48564215,5.74827494 4.27347503,4.96065073 4.27347503,3.48558258 C4.27347503,2.17028469 3.56079726,1.44052323 2.21923536,1.44052323 Z M8.2610151,6.5117177 C7.07062727,6.5117177 6.29920758,5.6230496 6.29920758,4.41656821 C6.29920758,3.15913307 7.08704045,2.26269236 8.32839554,2.26269236 C9.50150633,2.26269236 10.2902031,3.10904294 10.2902031,4.35006924 C10.2902031,5.6230496 9.47731848,6.5117177 8.2610151,6.5117177 Z M8.29556917,2.92422761 C7.64163333,2.92422761 7.22266519,3.53567272 7.22266519,4.39065952 C7.22266519,5.22923749 7.65027185,5.8406826 8.28693065,5.8406826 C8.92358945,5.8406826 9.35119611,5.18691996 9.35119611,4.37338706 C9.35119611,3.54430895 8.93222797,2.92422761 8.29556917,2.92422761 Z M17.0783508,2.34646379 L15.8041693,6.41931004 L14.9740077,6.41931004 L14.4461942,4.65061006 C14.3149569,4.21797417 14.2056841,3.77898111 14.1187944,3.33531217 L14.1015174,3.33531217 C14.0350008,3.77921441 13.9088784,4.22398028 13.7749814,4.65061006 L13.2134777,6.41931004 L12.3746775,6.41931004 L11.1756512,2.34646379 L12.1060196,2.34646379 L12.5673165,4.28270664 C12.6761618,4.74388135 12.7677301,5.17914736 12.8437491,5.59023192 L12.8610261,5.59023192 C12.9275427,5.24737358 13.036388,4.81901655 13.1962006,4.29134287 L13.7749814,2.34732742 L14.5127108,2.34732742 L15.0664399,4.24988897 C15.2003369,4.71106367 15.3091822,5.16360214 15.3938397,5.59109555 L15.4180275,5.59109555 C15.4767695,5.17223837 15.5692016,4.72747251 15.6944601,4.24988897 L16.1894472,2.34732742 L17.0783508,2.34646379 Z M21.7690662,6.41931004 L20.8637495,6.41931004 L20.8637495,4.08061885 C20.8637495,3.36035724 20.5873169,2.99936281 20.0422264,2.99936281 C19.5057744,2.99936281 19.1369097,3.46053751 19.1369097,3.99684742 L19.1369097,6.41931004 L18.231593,6.41931004 L18.231593,3.51062765 C18.231593,3.15049684 18.2229545,2.76445734 18.1979028,2.34560017 L18.9943741,2.34560017 L19.0367029,2.97431774 L19.0617546,2.97431774 C19.3053608,2.53905173 19.7994841,2.26269236 20.3532131,2.26269236 C21.2084264,2.26269236 21.7699301,2.916455 21.7699301,3.98043858 L21.7690662,6.41931004 Z M24.265598,6.41931004 L23.3594175,6.41931004 L23.3594175,0.47758354 L24.265598,0.47758354 L24.265598,6.41931004 Z M27.5663759,6.5117177 C26.3768519,6.5117177 25.6045684,5.6230496 25.6045684,4.41656821 C25.6045684,3.15913307 26.3924013,2.26269236 27.6328925,2.26269236 C28.8068671,2.26269236 29.5947,3.10904294 29.5947,4.35006924 C29.5955639,5.6230496 28.7818154,6.5117177 27.5663759,6.5117177 Z M27.6000661,2.92422761 C26.9461303,2.92422761 26.5271621,3.53567272 26.5271621,4.39065952 C26.5271621,5.22923749 26.9556327,5.8406826 27.5905638,5.8406826 C28.2280864,5.8406826 28.6548292,5.18691996 28.6548292,4.37338706 C28.6556931,3.54430895 28.2375888,2.92422761 27.6000661,2.92422761 Z M33.1641358,6.41931004 L33.0984831,5.95036273 L33.0742952,5.95036273 C32.7978626,6.327766 32.3944438,6.5117177 31.8830435,6.5117177 C31.1530887,6.5117177 30.6347776,6.00045287 30.6347776,5.31300893 C30.6347776,4.30775171 31.5064041,3.78785064 33.0155533,3.78785064 L33.0155533,3.71271544 C33.0155533,3.17640553 32.731346,2.90781877 32.1698423,2.90781877 C31.7681512,2.90781877 31.4156997,3.00886266 31.1055769,3.21008683 L30.9215764,2.61505056 C31.2982158,2.38014509 31.7681512,2.26269236 32.3201525,2.26269236 C33.384418,2.26269236 33.9217339,2.82404733 33.9217339,3.94762091 L33.9217339,5.44773412 C33.9217339,5.85881869 33.9398747,6.17749559 33.9804758,6.42017366 L33.1641358,6.41931004 Z M33.0397411,4.39065952 C32.0342176,4.39065952 31.5297281,4.63420122 31.5297281,5.21196503 C31.5297281,5.63945844 31.7897475,5.84845521 32.1508376,5.84845521 C32.6112706,5.84845521 33.0397411,5.49696063 33.0397411,5.0193771 L33.0397411,4.39065952 Z M38.3178758,6.41931004 L38.2755471,5.7655474 L38.2504954,5.7655474 C37.990476,6.25953978 37.553367,6.5117177 36.9426237,6.5117177 C35.9604242,6.5117177 35.2330609,5.64809467 35.2330609,4.43297705 C35.2330609,3.15913307 35.9872036,2.26182874 37.016915,2.26182874 C37.5620055,2.26182874 37.9481473,2.44578044 38.1658379,2.8154111 L38.1839788,2.8154111 L38.1839788,0.47758354 L39.0901594,0.47758354 L39.0901594,5.32164516 C39.0901594,5.71545726 39.0996617,6.0842243 39.1238496,6.41931004 L38.3178758,6.41931004 Z M38.1839788,4.02275611 C38.1839788,3.4527649 37.8064756,2.96654513 37.2302864,2.96654513 C36.5590735,2.96654513 36.1487439,3.56158141 36.1487439,4.39929575 C36.1487439,5.22060126 36.5746228,5.78281986 37.2121455,5.78281986 C37.7814238,5.78281986 38.1839788,5.28796386 38.1839788,4.70156382 L38.1839788,4.02275611 Z M44.8356379,6.5117177 C43.646114,6.5117177 42.8746943,5.6230496 42.8746943,4.41656821 C42.8746943,3.15913307 43.6625271,2.26269236 44.9030184,2.26269236 C46.076993,2.26269236 46.8648259,3.10904294 46.8648259,4.35006924 C46.8656897,5.6230496 46.0528052,6.5117177 44.8356379,6.5117177 Z M44.8693282,2.92422761 C44.2162562,2.92422761 43.797288,3.53567272 43.797288,4.39065952 C43.797288,5.22923749 44.2248947,5.8406826 44.8606896,5.8406826 C45.4982123,5.8406826 45.9249551,5.18691996 45.9249551,4.37338706 C45.9266828,3.54430895 45.5077147,2.92422761 44.8693282,2.92422761 Z M51.7334948,6.41931004 L50.8273143,6.41931004 L50.8273143,4.08061885 C50.8273143,3.36035724 50.5508817,2.99936281 50.0057912,2.99936281 C49.4693392,2.99936281 49.1013383,3.46053751 49.1013383,3.99684742 L49.1013383,6.41931004 L48.1951577,6.41931004 L48.1951577,3.51062765 C48.1951577,3.15049684 48.1865192,2.76445734 48.1614675,2.34560017 L48.9579389,2.34560017 L49.0002676,2.97431774 L49.0253193,2.97431774 C49.2680617,2.53905173 49.7630488,2.26182874 50.315914,2.26182874 C51.1711273,2.26182874 51.7334948,2.91559138 51.7334948,3.97957496 L51.7334948,6.41931004 Z M57.8245141,3.0252715 L56.828493,3.0252715 L56.828493,5.00296826 C56.828493,5.50646049 57.002991,5.75777479 57.3554426,5.75777479 C57.5152552,5.75777479 57.6491522,5.74050233 57.7571337,5.71545726 L57.7821854,6.4029012 C57.6068235,6.4702638 57.3718558,6.5039451 57.0798738,6.5039451 C56.3663322,6.5039451 55.9395894,6.11013299 55.9395894,5.07896708 L55.9395894,3.0252715 L55.3452594,3.0252715 L55.3452594,2.34646379 L55.9395894,2.34646379 L55.9395894,1.60029349 L56.828493,1.33170672 L56.828493,2.34560017 L57.8245141,2.34560017 L57.8245141,3.0252715 Z M62.6171641,6.41931004 L61.7127112,6.41931004 L61.7127112,4.09789131 C61.7127112,3.36899347 61.4371425,3.00022643 60.8911881,3.00022643 C60.4221166,3.00022643 59.9850076,3.31890333 59.9850076,3.96402974 L59.9850076,6.41931004 L59.0805547,6.41931004 L59.0805547,0.47758354 L59.9850076,0.47758354 L59.9850076,2.92422761 L60.0031485,2.92422761 C60.2882196,2.48032536 60.7011407,2.26182874 61.2280904,2.26182874 C62.0902145,2.26182874 62.6171641,2.93200021 62.6171641,3.99684742 L62.6171641,6.41931004 Z M67.5272979,4.60051992 L64.8104839,4.60051992 C64.8277609,5.37173529 65.3382974,5.80700131 66.0941677,5.80700131 C66.4958588,5.80700131 66.8655874,5.73963871 67.1921234,5.61441337 L67.3329313,6.24313094 C66.9476534,6.41067381 66.4941311,6.49444524 65.9663177,6.49444524 C64.6921362,6.49444524 63.9379936,5.68954857 63.9379936,4.44161328 C63.9379936,3.19281437 64.7102771,2.25405613 65.8643831,2.25405613 C66.9053246,2.25405613 67.5583966,3.0252715 67.5583966,4.19029898 C67.5642506,4.32778693 67.5538118,4.46548447 67.5272979,4.60051992 Z M66.6971363,3.95539351 C66.6971363,3.32667594 66.3801027,2.8827737 65.801322,2.8827737 C65.2812832,2.8827737 64.8700897,3.33531217 64.8113478,3.95539351 L66.6971363,3.95539351 Z" id="Shape"></path>
                    </g>
                </g>
            </g>
        </g>
    </g>
</svg>
